<?xml version="1.0" encoding="utf-8"?>
<!-- Generator: Adobe Illustrator 22.1.0, SVG Export Plug-In . SVG Version: 6.00 Build 0)  -->
<svg version="1.1" id="Слой_1" xmlns="http://www.w3.org/2000/svg" xmlns:xlink="http://www.w3.org/1999/xlink" x="0px" y="0px"
	 viewBox="0 0 792 612" style="enable-background:new 0 0 792 612;" xml:space="preserve">
<style type="text/css">
	.st0{fill:#ACCD3B;}
	.st1{fill:#EF4136;stroke:#F15A29;stroke-miterlimit:10;}
</style>
<g>
	<circle class="st0" cx="127.4" cy="97.9" r="3"/>
	<circle class="st0" cx="144.9" cy="115.4" r="5.5"/>
	<circle class="st0" cx="110.2" cy="111.6" r="2.8"/>
	<circle class="st0" cx="85.7" cy="115.4" r="2.8"/>
	<circle class="st0" cx="128.2" cy="59.6" r="2.8"/>
	<circle class="st0" cx="114.2" cy="44.6" r="2.8"/>
	<circle class="st0" cx="92.7" cy="39.6" r="2.8"/>
	<circle class="st0" cx="66.9" cy="108.4" r="2.8"/>
	<circle class="st0" cx="56.8" cy="94.9" r="2.8"/>
	<circle class="st0" cx="53.7" cy="76.6" r="2.8"/>
	<circle class="st0" cx="56.8" cy="59.4" r="2.8"/>
	<circle class="st0" cx="69.9" cy="45.4" r="2.8"/>
	<circle class="st0" cx="119.2" cy="135.4" r="5.5"/>
	<circle class="st0" cx="80.4" cy="140.4" r="5.5"/>
	<circle class="st0" cx="148.4" cy="45.4" r="5.5"/>
	<circle class="st0" cx="125.4" cy="23.4" r="5.5"/>
	<circle class="st0" cx="90.2" cy="13.9" r="5.5"/>
	<circle class="st0" cx="47.4" cy="126.9" r="5.5"/>
	<circle class="st0" cx="54.9" cy="23.1" r="5.5"/>
	<circle class="st0" cx="27.8" cy="101.9" r="5.5"/>
	<circle class="st0" cx="22.8" cy="73.9" r="5.5"/>
	<circle class="st0" cx="33.4" cy="43.9" r="5.5"/>
	<g>
		<g>
			<path class="st1" d="M155.4,68.4h9.2V71h-7.2v8h6.1v2.6h-6.1V92h-1.9V68.4z"/>
			<path class="st1" d="M167.6,83.2c0-5.7,2.7-9.1,5.6-9.1c3.2,0,5,3.3,5,8.2c0,0.7,0,1.3-0.1,1.8h-9.3v-2.3h8.2l-0.5,0.8
				c0-4.1-1.3-6.2-3.3-6.2c-2,0-3.8,2.4-3.8,6.8c0,4.5,1.9,6.8,4.3,6.8c1.3,0,2.4-0.6,3.4-1.7l0.7,1.9c-1.1,1.2-2.5,2.1-4.3,2.1
				C170.2,92.4,167.6,89.1,167.6,83.2z"/>
			<path class="st1" d="M182.9,74.5h1.6l0.2,4.1h0c1.2-2.8,2.9-4.6,4.9-4.6c0.8,0,1.5,0.2,2.2,0.7l-0.4,2.6c-0.8-0.4-1.2-0.6-2-0.6
				c-1.7,0-3.2,1.3-4.5,5V92h-1.9V74.5z"/>
			<path class="st1" d="M194.9,95.2c0-1.4,0.6-2.8,1.8-3.9v-0.1c-0.6-0.5-1.1-1.4-1.1-2.9c0-1.1,0.5-2.4,1.3-3.3v-0.1
				c-0.7-0.9-1.4-2.4-1.4-4.5c0-3.8,2-6.3,4.3-6.3c0.6,0,1.2,0.1,1.6,0.4h4.6v2.4h-2.9c0.5,0.8,0.9,2.1,0.9,3.5c0,3.7-1.9,6-4.3,6
				c-0.6,0-1.2-0.2-1.9-0.6c-0.5,0.5-0.9,1.2-0.9,2c0,1.4,0.8,2,2.3,2h2.5c2.8,0,4.2,1.2,4.2,4.1c0,3.3-2.4,6.1-6.1,6.1
				C196.8,100.1,194.9,98.3,194.9,95.2z M204.3,94.4c0-1.7-0.8-2.1-2.5-2.1h-2.2c-0.6,0-1.2-0.1-1.7-0.3c-1,0.9-1.4,1.9-1.4,2.9
				c0,1.8,1.2,3,3.6,3C202.7,97.9,204.3,96.2,204.3,94.4z M202.4,80.3c0-2.4-1.1-4.1-2.5-4.1c-1.4,0-2.5,1.7-2.5,4.1
				c0,2.5,1.2,4.1,2.5,4.1C201.3,84.5,202.4,82.9,202.4,80.3z"/>
			<path class="st1" d="M209,66.4h1.9v7l-0.1,4.1h0.1c1.1-1.9,2.4-3.4,4.1-3.4c2.6,0,3.8,2.4,3.8,7.1V92h-1.9V81.5
				c0-3.3-0.7-4.9-2.5-4.9c-1.3,0-2.2,1-3.5,3.1V92H209V66.4z"/>
			<path class="st1" d="M222.3,87.5c0-3.9,2.3-5.8,8-6.6c-0.1-2.4-0.8-4.4-2.9-4.4c-1.4,0-2.8,1.1-3.9,2.1l-0.7-2
				c1.1-1.2,3-2.5,4.9-2.5c3,0,4.5,2.8,4.5,7.2V92h-1.6l-0.2-2.4h-0.1c-1.2,1.5-2.8,2.8-4.3,2.8C224,92.4,222.3,90.6,222.3,87.5z
				 M230.3,87.4v-4.5c-4.7,0.6-6.2,2.1-6.2,4.4c0,2,1.1,2.8,2.4,2.8C227.8,90,229.1,89.1,230.3,87.4z"/>
			<path class="st1" d="M236.2,74.5h1.5l0.2,3h0.1c1.2-1.9,2.4-3.4,4.2-3.4c2.6,0,3.8,2.4,3.8,7.1V92h-1.9V81.5
				c0-3.3-0.7-4.9-2.5-4.9c-1.3,0-2.2,1-3.5,3.1V92h-1.9V74.5z"/>
			<path class="st1" d="M249.6,87.5c0-3.9,2.3-5.8,8-6.6c-0.1-2.4-0.8-4.4-2.9-4.4c-1.4,0-2.8,1.1-3.9,2.1l-0.7-2
				c1.1-1.2,3-2.5,4.9-2.5c3,0,4.5,2.8,4.5,7.2V92h-1.6l-0.2-2.4h-0.1c-1.2,1.5-2.8,2.8-4.3,2.8C251.3,92.4,249.6,90.6,249.6,87.5z
				 M257.6,87.4v-4.5c-4.7,0.6-6.2,2.1-6.2,4.4c0,2,1.1,2.8,2.4,2.8C255.1,90,256.3,89.1,257.6,87.4z"/>
			<path class="st1" d="M280.7,68.4h2.2l5,23.6h-2l-2.6-13.2c-0.5-2.6-1-5.2-1.5-8h-0.1c-0.5,2.7-1,5.3-1.5,8L277.6,92h-2
				L280.7,68.4z M278.3,82.4h6.8v2.4h-6.8V82.4z"/>
			<path class="st1" d="M290.2,95.2c0-1.4,0.6-2.8,1.8-3.9v-0.1c-0.6-0.5-1.1-1.4-1.1-2.9c0-1.1,0.5-2.4,1.3-3.3v-0.1
				c-0.7-0.9-1.4-2.4-1.4-4.5c0-3.8,2-6.3,4.3-6.3c0.6,0,1.2,0.1,1.6,0.4h4.6v2.4h-2.9c0.5,0.8,0.9,2.1,0.9,3.5c0,3.7-1.9,6-4.3,6
				c-0.6,0-1.2-0.2-1.9-0.6c-0.5,0.5-0.9,1.2-0.9,2c0,1.4,0.8,2,2.3,2h2.5c2.8,0,4.2,1.2,4.2,4.1c0,3.3-2.4,6.1-6.1,6.1
				C292.1,100.1,290.2,98.3,290.2,95.2z M299.6,94.4c0-1.7-0.8-2.1-2.5-2.1h-2.2c-0.6,0-1.2-0.1-1.7-0.3c-1,0.9-1.4,1.9-1.4,2.9
				c0,1.8,1.2,3,3.6,3C298,97.9,299.6,96.2,299.6,94.4z M297.8,80.3c0-2.4-1.1-4.1-2.5-4.1c-1.4,0-2.5,1.7-2.5,4.1
				c0,2.5,1.2,4.1,2.5,4.1C296.6,84.5,297.8,82.9,297.8,80.3z"/>
			<path class="st1" d="M305.5,74.5h1.6l0.2,4.1h0c1.2-2.8,2.9-4.6,4.9-4.6c0.8,0,1.5,0.2,2.2,0.7l-0.4,2.6c-0.8-0.4-1.2-0.6-2-0.6
				c-1.7,0-3.2,1.3-4.5,5V92h-1.9V74.5z"/>
			<path class="st1" d="M317.2,83.3c0-5.9,2.5-9.2,5.4-9.2s5.4,3.3,5.4,9.2c0,5.8-2.5,9.1-5.4,9.1S317.2,89.1,317.2,83.3z
				 M326.2,83.3c0-4-1.4-6.7-3.5-6.7s-3.5,2.7-3.5,6.7c0,4,1.4,6.7,3.5,6.7S326.2,87.3,326.2,83.3z"/>
			<path class="st1" d="M344,68.4h2l2.4,12.7c0.5,2.8,0.9,5,1.4,7.8h0.1c0.5-2.7,0.9-5,1.4-7.8l2.4-12.7h2L351,92h-2.2L344,68.4z"/>
			<path class="st1" d="M358.5,87.5c0-3.9,2.3-5.8,8-6.6c-0.1-2.4-0.8-4.4-2.9-4.4c-1.4,0-2.8,1.1-3.9,2.1l-0.8-2
				c1.1-1.2,3-2.5,4.9-2.5c3,0,4.5,2.8,4.5,7.2V92h-1.6l-0.2-2.4h-0.1c-1.2,1.5-2.8,2.8-4.3,2.8C360.2,92.4,358.5,90.6,358.5,87.5z
				 M366.5,87.4v-4.5c-4.7,0.6-6.2,2.1-6.2,4.4c0,2,1.1,2.8,2.4,2.8C364,90,365.3,89.1,366.5,87.4z"/>
			<path class="st1" d="M375.9,86.1V68.8H372v-2.4h5.8v20c0,2.5,0.9,3.6,2.2,3.6c0.6,0,1.3-0.3,2.1-0.8l0.5,2.2c-1,0.7-1.7,1-3,1
				C377.2,92.4,375.9,90.3,375.9,86.1z"/>
			<path class="st1" d="M389.5,86.1V68.8h-3.9v-2.4h5.8v20c0,2.5,0.9,3.6,2.2,3.6c0.6,0,1.3-0.3,2.1-0.8l0.5,2.2c-1,0.7-1.7,1-3,1
				C390.8,92.4,389.5,90.3,389.5,86.1z"/>
			<path class="st1" d="M399.1,83.2c0-5.7,2.7-9.1,5.6-9.1c3.2,0,5,3.3,5,8.2c0,0.7,0,1.3-0.1,1.8h-9.3v-2.3h8.2l-0.5,0.8
				c0-4.1-1.3-6.2-3.3-6.2c-2,0-3.8,2.4-3.8,6.8c0,4.5,1.9,6.8,4.3,6.8c1.3,0,2.4-0.6,3.4-1.7l0.7,1.9c-1.1,1.2-2.5,2.1-4.3,2.1
				C401.7,92.4,399.1,89.1,399.1,83.2z"/>
			<path class="st1" d="M412.7,99.2l0.4-2.4c0.3,0.1,0.7,0.3,1,0.3c1.5,0,2.5-1.5,3-3.7l0.3-1.3l-5.1-17.5h1.9l2.7,9.6
				c0.4,1.5,0.9,3.4,1.4,5.1h0.1c0.4-1.7,0.8-3.5,1.2-5.1l2.4-9.6h1.8l-4.9,18.9c-0.8,3.5-2.2,6.1-4.7,6.1
				C413.6,99.5,413.1,99.4,412.7,99.2z"/>
		</g>
	</g>
</g>
</svg>
